<svg width="147" height="144" viewBox="0 0 147 144" fill="none" xmlns="http://www.w3.org/2000/svg">
<g clip-path="url(#clip0_1501_1096)">
<path fill-rule="evenodd" clip-rule="evenodd" d="M65.235 82.1063H119.896L116.487 100.22H65.235V82.1063Z" fill="#2D73C5"/>
<path fill-rule="evenodd" clip-rule="evenodd" d="M29.937 44.3625H65.2352V62.4758H26.8217L29.937 44.3625Z" fill="#2ABFAF"/>
<path fill-rule="evenodd" clip-rule="evenodd" d="M61.6049 0H79.7244L54.3571 120.454H36.2375L61.6049 0Z" fill="#D43E41"/>
<path fill-rule="evenodd" clip-rule="evenodd" d="M92.4123 23.5312H110.532L85.1645 143.985H67.0449L92.4123 23.5312Z" fill="#EF992F"/>
<path fill-rule="evenodd" clip-rule="evenodd" d="M23.031 82.1063H66.4297V100.22H19.9662L23.031 82.1063Z" fill="#2D73C5"/>
<path fill-rule="evenodd" clip-rule="evenodd" d="M70.0687 44.3625H126.681L123.521 62.4758H66.4448L70.0687 44.3625Z" fill="#2ABFAF"/>
<path fill-rule="evenodd" clip-rule="evenodd" d="M128.638 44.3625H146.757L136.792 100.212H118.672L128.638 44.3625Z" fill="#95A5A6"/>
<path fill-rule="evenodd" clip-rule="evenodd" d="M9.96576 44.3635H28.0853L18.1196 100.213H0L9.96576 44.3635Z" fill="#95A5A6"/>
</g>
<defs>
<clipPath id="clip0_1501_1096">
<rect width="147" height="144" fill="white"/>
</clipPath>
</defs>
</svg>
